Coordinates
version=1
nRows=11
nColumns=63
inDegrees=yes

Units are S.I. units (second, meters, Newtons, ...)
If the header above contains a line with 'inDegrees', this indicates whether rotational values are in degrees (yes) or radians (no).

endheader
time	pelvis_tilt	pelvis_list	pelvis_rotation	pelvis_tx	pelvis_ty	pelvis_tz	hip_flexion_r	hip_adduction_r	hip_rotation_r	knee_angle_r	knee_angle_r_beta	ankle_angle_r	subtalar_angle_r	mtp_angle_r	hip_flexion_l	hip_adduction_l	hip_rotation_l	knee_angle_l	knee_angle_l_beta	ankle_angle_l	subtalar_angle_l	mtp_angle_l	L5_S1_Flex_Ext	L5_S1_Lat_Bending	L5_S1_axial_rotation	L4_L5_Flex_Ext	L4_L5_Lat_Bending	L4_L5_axial_rotation	L3_L4_Flex_Ext	L3_L4_Lat_Bending	L3_L4_axial_rotation	L2_L3_Flex_Ext	L2_L3_Lat_Bending	L2_L3_axial_rotation	L1_L2_Flex_Ext	L1_L2_Lat_Bending	L1_L2_axial_rotation	L1_T12_Flex_Ext	L1_T12_Lat_Bending	L1_T12_axial_rotation	Abs_r3	Abs_r2	Abs_r1	Abs_t1	Abs_t2	neck_flexion	neck_bending	neck_rotation	arm_flex_r	arm_add_r	arm_rot_r	elbow_flex_r	pro_sup_r	wrist_flex_r	wrist_dev_r	arm_flex_l	arm_add_l	arm_rot_l	elbow_flex_l	pro_sup_l	wrist_flex_l	wrist_dev_l
2.733333	7.714365	0.612104	94.775431	0.411583	0.698990	0.691148	1.527915	3.779704	-1.396048	5.780843	0.100895	22.254010	-12.302146	0.000000	-0.521477	-2.352353	15.881399	1.354044	0.023633	20.839509	-6.082058	0.000000	0.150458	0.543818	-1.270185	0.279416	0.723278	-1.349572	0.247188	1.322240	-1.349572	0.171959	1.322240	-1.111412	0.139715	1.108954	-1.032025	0.085972	0.842374	-0.952639	1.074707	6.151781	-7.064388	0.000000	0.000000	26.234428	-4.297092	-3.759957	-6.468648	-87.325486	50.514561	10.313667	6.020269	-4.574050	7.087721	-172.469391	-96.436326	-132.382072	2.351949	66.161029	-5.537968	17.640794
2.750000	7.720929	0.558560	94.593466	0.411356	0.698852	0.691859	1.714053	3.746774	-1.285170	5.975810	0.104298	22.083102	-12.431648	0.000000	-0.432235	-2.313559	15.881347	1.402248	0.024474	20.643297	-6.608866	0.000000	0.156303	0.546801	-1.260157	0.290271	0.727246	-1.338917	0.256791	1.329493	-1.338917	0.178639	1.329493	-1.102638	0.145143	1.115037	-1.023878	0.089312	0.846995	-0.945118	1.116459	6.185525	-7.008618	0.000000	0.000000	26.134286	-4.139051	-3.623132	0.657348	-87.298229	57.468914	10.235948	6.185832	-4.556262	7.004098	-171.496456	-96.528083	-130.492766	2.374108	68.446291	-5.466412	17.936948
2.766667	7.715995	0.520780	94.410698	0.411160	0.698756	0.692555	1.878080	3.708256	-1.126842	6.164276	0.107587	21.924153	-12.568876	0.000000	-0.367899	-2.269582	15.790785	1.442081	0.025169	20.421791	-7.033564	0.000000	0.160359	0.548594	-1.252758	0.297802	0.729629	-1.331055	0.263453	1.333850	-1.331055	0.183274	1.333850	-1.096163	0.148909	1.118692	-1.017866	0.091629	0.849771	-0.939568	1.145426	6.205799	-6.967462	0.000000	0.000000	25.999985	-3.947975	-3.446076	8.355257	-87.225291	64.859205	10.126517	6.401457	-4.534722	6.962076	-170.542086	-96.598704	-127.616166	2.407193	70.561198	-5.253278	18.168384
2.783333	7.684017	0.493394	94.226139	0.411039	0.698686	0.693217	2.023377	3.649194	-0.930908	6.342418	0.110696	21.820343	-12.678749	0.000000	-0.328250	-2.207253	15.604791	1.468526	0.025631	20.197303	-7.312459	0.000000	0.162785	0.546551	-1.246638	0.302309	0.726913	-1.324553	0.267440	1.328884	-1.324553	0.186047	1.328884	-1.090808	0.151163	1.114526	-1.012893	0.093016	0.846607	-0.934978	1.162760	6.182692	-6.933426	0.000000	0.000000	25.867106	-3.740932	-3.269652	16.264998	-87.090069	72.480659	9.969433	6.618535	-4.500680	6.949039	-169.748728	-96.630706	-123.910684	2.448344	72.343733	-4.884858	18.306942
2.800000	7.646653	0.468554	94.027301	0.410978	0.698610	0.693803	2.158672	3.592652	-0.627290	6.508453	0.113594	21.750818	-12.842643	0.000000	-0.310011	-2.144680	15.491193	1.476756	0.025774	19.935231	-7.702315	0.000000	0.164728	0.544329	-1.237881	0.305916	0.723957	-1.315249	0.270631	1.323481	-1.315249	0.188267	1.323481	-1.083146	0.152966	1.109995	-1.005779	0.094125	0.843165	-0.928411	1.176632	6.157555	-6.884725	0.000000	0.000000	25.754004	-3.546747	-3.052000	23.817353	-86.958640	79.823226	9.842622	6.781851	-4.457941	6.969779	-169.167542	-96.620770	-119.234851	2.579735	73.968245	-4.415138	18.274729
2.816667	7.592975	0.443552	93.834885	0.410988	0.698542	0.694311	2.283951	3.526186	-0.296120	6.656428	0.116177	21.750018	-12.982305	0.000000	-0.306551	-2.074010	15.349913	1.467914	0.025620	19.681017	-8.012626	0.000000	0.165994	0.539343	-1.231186	0.308267	0.717326	-1.308136	0.272711	1.311358	-1.308136	0.189714	1.311358	-1.077288	0.154142	1.099828	-1.000339	0.094849	0.835442	-0.923390	1.185677	6.101153	-6.847490	0.000000	0.000000	25.680377	-3.358534	-2.858453	30.761570	-86.782375	86.532250	9.718339	6.934315	-4.422628	7.023497	-169.080588	-96.569742	-114.410119	2.730297	75.580843	-3.840587	18.182157
2.833333	7.525086	0.408999	93.656333	0.411065	0.698469	0.694723	2.407327	3.448441	0.026164	6.782387	0.118375	21.827410	-13.064289	0.000000	-0.307263	-1.996973	15.190122	1.440240	0.025137	19.451103	-8.230898	0.000000	0.168057	0.531458	-1.229378	0.312099	0.706839	-1.306214	0.276101	1.292187	-1.306214	0.192073	1.292187	-1.075706	0.156058	1.083749	-0.998870	0.096028	0.823228	-0.922034	1.200416	6.011958	-6.837432	0.000000	0.000000	25.662377	-3.187694	-2.715363	36.676292	-86.569699	92.248899	9.601412	6.975451	-4.375531	7.098193	-169.678682	-96.478972	-110.176228	2.888443	77.331435	-3.222248	18.088427
2.850000	7.474790	0.381663	93.494383	0.411110	0.698397	0.695072	2.509932	3.391576	0.346340	6.876354	0.120015	21.957027	-13.125927	0.000000	-0.324564	-1.942267	15.060775	1.392979	0.024312	19.264527	-8.409542	0.000000	0.169019	0.526222	-1.225684	0.313886	0.699875	-1.302290	0.277682	1.279456	-1.302290	0.193172	1.279456	-1.072474	0.156951	1.073072	-0.995868	0.096578	0.815118	-0.919263	1.207288	5.952728	-6.816888	0.000000	0.000000	25.689211	-3.082610	-2.601844	41.517762	-86.413543	96.962742	9.542714	6.977913	-4.356373	7.225173	-170.130940	-96.402131	-106.187336	2.984218	79.622565	-2.568744	18.046550
2.866667	7.433608	0.351195	93.373562	0.411116	0.698311	0.695344	2.599326	3.339382	0.492371	6.939469	0.121117	22.175403	-12.969682	0.000000	-0.340837	-1.902859	14.887918	1.329802	0.023209	19.149391	-8.399621	0.000000	0.170386	0.522309	-1.232117	0.316423	0.694671	-1.309125	0.279927	1.269943	-1.309125	0.194734	1.269943	-1.078103	0.158220	1.065093	-1.001095	0.097358	0.809057	-0.924088	1.217048	5.908467	-6.852667	0.000000	0.000000	25.774867	-3.029934	-2.495168	44.844400	-86.301332	100.078593	9.553926	6.923030	-4.348322	7.366620	-171.210789	-96.323505	-103.367310	3.066336	81.475151	-2.051269	17.978798
2.883333	7.392647	0.332107	93.269535	0.411123	0.698222	0.695599	2.662719	3.287559	0.554538	6.976188	0.121757	22.463176	-12.689022	0.000000	-0.372934	-1.866683	14.843775	1.246576	0.021757	19.031970	-8.497505	0.000000	0.170602	0.518504	-1.237837	0.316825	0.689610	-1.315202	0.280282	1.260691	-1.315202	0.194981	1.260691	-1.083107	0.158421	1.057333	-1.005743	0.097482	0.803163	-0.928378	1.218592	5.865421	-6.884478	0.000000	0.000000	25.888846	-3.037550	-2.417725	46.700200	-86.232104	101.789006	9.612672	6.804281	-4.379989	7.524293	-172.120800	-96.266560	-101.538541	3.108854	83.340677	-1.699193	17.849268
2.900000	7.359597	0.323233	93.178136	0.411087	0.698116	0.695850	2.701590	3.241644	0.540470	6.990158	0.122001	22.787014	-12.305453	0.000000	-0.415218	-1.839217	14.835947	1.149212	0.020058	18.950004	-8.574715	0.000000	0.170311	0.516930	-1.240919	0.316284	0.687516	-1.318476	0.279804	1.256863	-1.318476	0.194648	1.256863	-1.085804	0.158151	1.054123	-1.008247	0.097316	0.800724	-0.930689	1.216513	5.847612	-6.901619	0.000000	0.000000	26.021146	-3.099826	-2.292670	46.716152	-86.244426	101.729949	9.739760	6.647997	-4.441378	7.668378	-172.944887	-96.262279	-100.917568	3.120221	84.490394	-1.622847	17.611984
